<svg width="44" height="41" viewBox="0 0 44 41" fill="none" xmlns="http://www.w3.org/2000/svg">
<path fill-rule="evenodd" clip-rule="evenodd" d="M21.9894 0C9.89535 0 0 9.15283 0 20.3394C0 31.5265 9.89535 40.6788 21.9894 40.6788C24.0665 40.6788 25.6543 39.2101 25.6543 37.2889C25.6543 36.3852 25.2881 35.5939 24.6773 35.029C24.0665 34.4639 23.7002 33.6727 23.7002 32.769C23.7002 30.8479 25.2881 29.3791 27.3652 29.3791H31.7626C38.4816 29.3791 43.979 24.2942 43.979 18.0795C43.9788 8.13597 34.0841 0 21.9894 0ZM8.55148 20.3394C6.4744 20.3394 4.88658 18.8707 4.88658 16.9495C4.88658 15.0283 6.4744 13.5596 8.55148 13.5596C10.6285 13.5596 12.2164 15.0283 12.2164 16.9495C12.2164 18.8707 10.6285 20.3394 8.55148 20.3394ZM15.8813 11.2997C13.8042 11.2997 12.2164 9.83092 12.2164 7.9098C12.2164 5.98857 13.8042 4.5199 15.8813 4.5199C17.9583 4.5199 19.5462 5.98857 19.5462 7.9098C19.5462 9.83092 17.9583 11.2997 15.8813 11.2997ZM28.0976 11.2997C26.0206 11.2997 24.4327 9.83092 24.4327 7.9098C24.4327 5.98857 26.0206 4.5199 28.0976 4.5199C30.1746 4.5199 31.7625 5.98857 31.7625 7.9098C31.7625 9.83092 30.1746 11.2997 28.0976 11.2997ZM35.4274 20.3394C33.3504 20.3394 31.7625 18.8707 31.7625 16.9495C31.7625 15.0283 33.3504 13.5596 35.4274 13.5596C37.5044 13.5596 39.0923 15.0283 39.0923 16.9495C39.0923 18.8707 37.5044 20.3394 35.4274 20.3394Z" fill="black" fill-opacity="0.54"/>
</svg>
