<svg width="38" height="40" viewBox="0 0 38 40" fill="none" xmlns="http://www.w3.org/2000/svg">
<path d="M35.6615 17.0345C34.4844 16.1956 32.8173 15.9271 31.4138 16.3502C31.0377 16.4637 30.6885 16.6229 30.3756 16.8235C29.5777 17.3352 27.8062 18.8711 26.4024 20.3912V8.67387C26.4024 7.67791 25.9327 6.70448 25.1138 6.00287C24.3008 5.30643 23.233 4.93082 22.1124 4.94908C21.6036 4.957 21.1161 5.04497 20.6656 5.19868V4.05419C20.6656 2.97026 20.1544 1.91069 19.2625 1.14668C18.3787 0.389368 17.2221 -0.0188143 15.9988 0.000666468C13.56 0.0374973 11.5688 1.7655 11.4958 3.87795C10.9675 3.66914 10.3937 3.55195 9.79974 3.53642C8.56076 3.50477 7.33366 3.92269 6.4341 4.68396C5.55306 5.42941 5.06767 6.41349 5.06767 7.45206L5.06452 8.56185C4.68424 8.45288 4.27881 8.39322 3.85732 8.39322C1.73031 8.39322 0 9.90146 0 11.7552L0.00139682 28.7881L0.00453965 28.8687C0.182285 31.1041 0.719013 33.0181 1.60041 34.5577C2.42663 36.0011 3.57935 37.1633 5.02646 38.0119C7.87423 39.6824 11.3921 39.8966 14.1386 39.8966C19.5321 39.8966 24.3843 37.5593 26.8109 33.7946C27.106 33.38 27.8837 32.3141 28.7235 31.1644C29.5414 30.0443 30.3023 29.0121 30.9731 28.1014C31.3419 27.6006 31.6774 27.1453 31.9687 26.7484C33.0537 25.2693 34.2099 23.8354 35.4056 22.486C35.8491 21.9856 35.9856 21.8499 36.0167 21.82C36.5764 21.2877 36.9291 20.636 37.0367 19.935C37.2061 18.8352 36.7046 17.7778 35.6615 17.0345ZM34.3758 19.6245C34.3412 19.8485 34.2242 20.061 34.0374 20.2387C33.9399 20.3316 33.7657 20.5081 33.281 21.0554C32.0368 22.4592 30.8341 23.9504 29.7065 25.4876C29.416 25.8836 29.0818 26.3371 28.7137 26.8366C28.0415 27.7492 27.2796 28.7838 26.4586 29.9076C25.5992 31.0843 24.8037 32.1744 24.5125 32.5844L24.4821 32.6294C22.5346 35.6684 18.5714 37.5562 14.139 37.5562C11.7738 37.5562 8.77064 37.3873 6.5256 36.0705C4.23481 34.7269 2.97907 32.3314 2.68644 28.747L2.68504 11.7555C2.68504 11.1921 3.21094 10.7337 3.85732 10.7337C4.50754 10.7337 5.03659 11.1921 5.03659 11.7555V18.1296C5.03659 18.1485 5.03903 18.1668 5.03973 18.1856C5.04113 18.2063 5.04113 18.2274 5.04357 18.248C5.04567 18.2666 5.04986 18.2846 5.053 18.3028C5.05649 18.3232 5.05894 18.3439 5.06347 18.3643C5.06801 18.3826 5.0743 18.4005 5.07954 18.4185C5.08513 18.4377 5.08967 18.4575 5.09665 18.4763C5.10293 18.4946 5.11132 18.5123 5.119 18.5299C5.12633 18.5479 5.13297 18.5661 5.1417 18.5838C5.15008 18.6014 5.1602 18.6182 5.16963 18.6352C5.17906 18.6523 5.18779 18.6696 5.19792 18.6864C5.20805 18.7028 5.22027 18.7186 5.23144 18.7348C5.24262 18.7509 5.25309 18.7673 5.26497 18.7829C5.27719 18.7984 5.29081 18.813 5.30373 18.8279C5.31665 18.8431 5.32852 18.8586 5.34214 18.873C5.35576 18.8873 5.37078 18.9004 5.38474 18.914C5.39941 18.928 5.41338 18.943 5.42874 18.9564C5.44376 18.9691 5.45947 18.9807 5.47519 18.9932C5.49125 19.006 5.50697 19.0197 5.52408 19.0318C5.54014 19.0434 5.55725 19.0538 5.57401 19.0647C5.59182 19.0763 5.60893 19.0885 5.62709 19.0994C5.6442 19.1095 5.66236 19.118 5.67982 19.1271C5.69903 19.1375 5.71789 19.1484 5.73779 19.1582C5.75595 19.1667 5.77516 19.1737 5.79366 19.1816C5.81392 19.1904 5.83417 19.1996 5.85512 19.2075C5.87433 19.2148 5.89493 19.2203 5.91449 19.2267C5.93579 19.2333 5.95674 19.241 5.97839 19.247C5.999 19.2525 6.02065 19.2565 6.0416 19.2614C6.0636 19.2662 6.0849 19.272 6.1069 19.276C6.12925 19.2799 6.1516 19.2821 6.17395 19.2851C6.1963 19.2878 6.21795 19.2918 6.2403 19.2939C6.26265 19.2957 6.28569 19.2961 6.30839 19.297C6.33074 19.2979 6.35309 19.3 6.37579 19.3C6.37684 19.3 6.37823 19.3 6.37928 19.3C6.42572 19.3 6.47147 19.2979 6.51652 19.2939C6.53607 19.2924 6.55528 19.2887 6.57483 19.2863C6.59963 19.2833 6.62512 19.2808 6.64956 19.2763C6.67541 19.2717 6.7002 19.2653 6.72534 19.2595C6.7428 19.2553 6.76096 19.2522 6.77807 19.2477C6.80601 19.24 6.83325 19.2306 6.86048 19.2215C6.87375 19.2169 6.88807 19.2133 6.90134 19.2084C6.92858 19.1983 6.95442 19.1865 6.98061 19.1752C6.99318 19.1697 7.0061 19.1652 7.01867 19.1594C7.04312 19.1478 7.06617 19.1344 7.08956 19.1216C7.10283 19.1146 7.11645 19.1082 7.12902 19.1006C7.15067 19.0882 7.17128 19.0739 7.19188 19.0598C7.2055 19.051 7.21947 19.0428 7.23239 19.0334C7.25159 19.02 7.26905 19.0048 7.28721 18.9901C7.30083 18.9795 7.3148 18.9691 7.32807 18.9582C7.34483 18.9436 7.35985 18.9277 7.37556 18.9125C7.38848 18.9 7.40245 18.8879 7.41467 18.8751C7.42864 18.8602 7.44121 18.8443 7.45448 18.8288C7.46705 18.8142 7.48032 18.8002 7.49185 18.785C7.50407 18.7695 7.5142 18.7533 7.52537 18.7372C7.53655 18.7211 7.54877 18.7052 7.55924 18.6888C7.56937 18.6724 7.57775 18.6553 7.58718 18.6386C7.59661 18.6212 7.60709 18.6042 7.61582 18.5865C7.6242 18.5695 7.63048 18.5515 7.63782 18.5342C7.64585 18.5159 7.65423 18.498 7.66121 18.4791C7.6675 18.4611 7.67204 18.4429 7.67728 18.4246C7.68286 18.4054 7.6895 18.3865 7.69439 18.3671C7.69858 18.3488 7.70102 18.3296 7.70416 18.3108C7.70801 18.291 7.7122 18.2712 7.71464 18.2511C7.71708 18.2322 7.71708 18.2127 7.71813 18.1936C7.71953 18.1732 7.72197 18.1534 7.72197 18.133L7.75305 7.4551C7.75305 7.05209 7.94896 6.6643 8.30445 6.36326C8.68648 6.04031 9.2033 5.86194 9.72048 5.87594C10.6892 5.90121 11.4773 6.63569 11.4773 7.51506L11.4927 18.0679C11.4927 18.0892 11.4951 18.1099 11.4965 18.1306C11.4976 18.1491 11.4976 18.1683 11.4997 18.1866C11.5021 18.2085 11.507 18.2295 11.5108 18.2508C11.514 18.2681 11.5161 18.2858 11.5199 18.3028C11.5255 18.326 11.5332 18.3485 11.5402 18.371C11.5447 18.3856 11.5482 18.4005 11.5531 18.4149C11.5618 18.4392 11.573 18.4629 11.5835 18.4867C11.5887 18.4986 11.5926 18.5107 11.5982 18.5223C11.6107 18.5476 11.625 18.5722 11.6394 18.5966C11.6449 18.6057 11.6491 18.6154 11.6547 18.6243C11.6704 18.6495 11.6882 18.6736 11.7057 18.6973C11.7113 18.7052 11.7162 18.7132 11.7221 18.7208C11.7406 18.7448 11.7609 18.7673 11.7811 18.7899C11.7874 18.7969 11.793 18.8042 11.7993 18.8109C11.822 18.8349 11.8464 18.8574 11.8712 18.8797C11.8765 18.8845 11.8807 18.8894 11.8859 18.894C11.9114 18.9162 11.9386 18.9369 11.9662 18.9573C11.9715 18.9612 11.976 18.9655 11.9812 18.9694C12.0088 18.9892 12.0375 19.0072 12.0664 19.0248C12.0727 19.0288 12.0783 19.0331 12.0846 19.0367C12.1139 19.0541 12.1447 19.0696 12.1754 19.0848C12.182 19.0882 12.1883 19.0921 12.1953 19.0955C12.2274 19.1104 12.2606 19.1238 12.2941 19.1369C12.3004 19.1393 12.3063 19.1423 12.3126 19.1448C12.3468 19.1573 12.3821 19.1679 12.4177 19.1783C12.424 19.1798 12.4296 19.1822 12.4359 19.184C12.4712 19.1935 12.5071 19.2011 12.5431 19.2081C12.5504 19.2093 12.5574 19.2114 12.5648 19.213C12.6521 19.2285 12.7425 19.2367 12.835 19.2367C12.8357 19.2367 12.8364 19.2367 12.8371 19.2367C12.8605 19.2367 12.8836 19.2346 12.9066 19.2337C12.929 19.2324 12.9513 19.2324 12.9733 19.2306C12.9978 19.2282 13.0212 19.2242 13.0453 19.2209C13.0655 19.2181 13.0865 19.2163 13.1067 19.2127C13.1308 19.2084 13.1542 19.2023 13.178 19.1968C13.1972 19.1923 13.2164 19.1889 13.2352 19.1837C13.2593 19.1773 13.2824 19.1691 13.3058 19.1612C13.3232 19.1554 13.3414 19.1509 13.3585 19.1445C13.3826 19.1353 13.406 19.1247 13.4294 19.1146C13.4447 19.1079 13.4608 19.1022 13.4758 19.0952C13.4989 19.0842 13.5209 19.0714 13.5432 19.0595C13.5575 19.0516 13.5726 19.0446 13.5865 19.0364C13.6078 19.0239 13.6277 19.0099 13.648 18.9962C13.662 18.9871 13.6763 18.9786 13.6899 18.9688C13.7091 18.9551 13.7273 18.9396 13.7458 18.9247C13.7587 18.9144 13.7723 18.9043 13.7852 18.8933C13.8023 18.8781 13.8184 18.8617 13.8348 18.8459C13.847 18.834 13.86 18.8227 13.8718 18.8103C13.8865 18.7944 13.8998 18.7777 13.9134 18.7615C13.9253 18.7475 13.9378 18.7342 13.949 18.7202C13.9616 18.704 13.972 18.687 13.9836 18.6702C13.9944 18.6547 14.0063 18.6395 14.016 18.6237C14.0265 18.6069 14.0349 18.5893 14.0443 18.5722C14.0538 18.5552 14.0642 18.5387 14.0726 18.5211C14.0807 18.5043 14.0873 18.4867 14.0943 18.4693C14.1023 18.4508 14.111 18.4325 14.1177 18.4136C14.124 18.3954 14.1285 18.3768 14.1341 18.3582C14.1397 18.3394 14.1463 18.3208 14.1505 18.3016C14.155 18.2824 14.1575 18.2627 14.161 18.2435C14.1641 18.224 14.1687 18.2048 14.1707 18.1853C14.1732 18.1656 14.1732 18.1455 14.1742 18.1254C14.1756 18.1056 14.1777 18.0864 14.1777 18.0663V3.99818C14.1777 3.09963 15.0158 2.35632 16.0456 2.34079C16.5425 2.3347 17.0147 2.50212 17.381 2.81594C17.7623 3.14255 17.9809 3.59395 17.9809 4.05419V18.1309C17.9809 18.1522 17.9834 18.1729 17.9848 18.1939C17.9858 18.2124 17.9858 18.2313 17.9879 18.2499C17.9904 18.2706 17.9952 18.2907 17.9987 18.3111C18.0022 18.3296 18.0043 18.3482 18.0085 18.3662C18.0134 18.3865 18.0204 18.4063 18.0263 18.4264C18.0316 18.4438 18.0354 18.4611 18.0417 18.4782C18.0494 18.4998 18.0591 18.5208 18.0682 18.5418C18.0745 18.5564 18.0797 18.5713 18.0867 18.5856C18.0976 18.6075 18.1101 18.6285 18.1224 18.6498C18.1293 18.6623 18.1356 18.6754 18.1433 18.6879C18.1566 18.7095 18.1719 18.7299 18.187 18.7506C18.195 18.7615 18.202 18.7734 18.2107 18.7844C18.2268 18.8051 18.2446 18.8249 18.2624 18.8446C18.2711 18.8544 18.2788 18.8647 18.2879 18.8742C18.3074 18.8952 18.3291 18.9147 18.3504 18.9344C18.3588 18.9417 18.3661 18.95 18.3745 18.9573C18.3965 18.9768 18.4202 18.9944 18.444 19.0124C18.4527 19.0191 18.4607 19.0264 18.4698 19.0328C18.4963 19.0519 18.5243 19.0693 18.5522 19.0866C18.5592 19.0909 18.5658 19.0958 18.5732 19.1003C18.6032 19.118 18.6346 19.1341 18.6664 19.1496C18.6723 19.1524 18.6776 19.156 18.6835 19.1588C18.7184 19.1752 18.7541 19.1898 18.7907 19.2038C18.7942 19.205 18.7974 19.2069 18.8009 19.2081C18.8389 19.2221 18.878 19.2343 18.9178 19.2452C18.9199 19.2461 18.922 19.2467 18.9245 19.2474C19.0079 19.2702 19.0949 19.2857 19.1846 19.2939C19.1853 19.2939 19.1857 19.2939 19.1864 19.2939C19.2314 19.2979 19.2772 19.3 19.3236 19.3C19.324 19.3 19.3243 19.3 19.325 19.3C19.3488 19.3 19.3722 19.2979 19.3959 19.297C19.4179 19.2957 19.4399 19.2957 19.4616 19.2939C19.4863 19.2918 19.5104 19.2875 19.5349 19.2842C19.5548 19.2814 19.575 19.2796 19.5949 19.276C19.6211 19.2714 19.6463 19.2647 19.6718 19.2589C19.6889 19.255 19.7067 19.2519 19.7235 19.2474C19.7507 19.2397 19.7769 19.2306 19.8034 19.2218C19.8177 19.2169 19.8324 19.213 19.8467 19.2078C19.8736 19.1977 19.8995 19.1862 19.9256 19.1746C19.9382 19.1691 19.9515 19.1646 19.9641 19.1585C19.9896 19.1463 20.014 19.1326 20.0388 19.1189C20.0507 19.1125 20.0629 19.1067 20.0748 19.0997C20.0999 19.0851 20.1233 19.0687 20.147 19.0525C20.1572 19.0458 20.168 19.0395 20.1781 19.0325C20.2015 19.0154 20.2235 18.9968 20.2459 18.9786C20.2549 18.9713 20.2647 18.9646 20.2731 18.957C20.2948 18.9381 20.315 18.918 20.3349 18.8976C20.3433 18.8897 20.352 18.8821 20.3601 18.8739C20.3793 18.8535 20.3967 18.8319 20.4142 18.8106C20.4215 18.8014 20.4299 18.7929 20.4372 18.7838C20.4536 18.7625 20.4683 18.7402 20.483 18.718C20.49 18.7077 20.498 18.6979 20.5046 18.6873C20.5186 18.6648 20.5305 18.6413 20.5427 18.6179C20.5486 18.6069 20.5556 18.5963 20.5609 18.585C20.572 18.5622 20.5811 18.5384 20.5905 18.515C20.5954 18.5025 20.6017 18.4903 20.6062 18.4773C20.6139 18.455 20.6199 18.4316 20.6265 18.4088C20.6303 18.3942 20.6356 18.3798 20.6391 18.3652C20.6443 18.3427 20.6475 18.3193 20.6513 18.2964C20.6537 18.2806 20.6576 18.2651 20.6593 18.249C20.6621 18.2277 20.6621 18.2057 20.6632 18.1838C20.6642 18.1659 20.6663 18.1482 20.6663 18.1296V8.47084C20.7536 7.81793 21.3895 7.30078 22.1595 7.28921C22.5552 7.28343 22.9372 7.41918 23.2323 7.67213C23.541 7.93634 23.718 8.3016 23.718 8.67387V22.4866L23.7187 22.539C23.726 23.2972 24.2973 23.938 25.14 24.1334C25.977 24.3273 26.8322 24.0207 27.2722 23.3639L27.2806 23.3508C28.3331 21.7479 31.1463 19.2355 31.9676 18.7089C32.0626 18.6477 32.1719 18.5987 32.2924 18.5622C32.8274 18.4012 33.4982 18.5153 33.9626 18.8465C34.1812 19.0026 34.4309 19.2644 34.3758 19.6245Z" fill="#F48C06"/>
</svg>
