<svg width="65" height="65" viewBox="0 0 65 65" fill="none" xmlns="http://www.w3.org/2000/svg">
<g clip-path="url(#clip0_10_702)">
<path d="M49.0851 18.8533L7.35524 21.9572C5.5972 22.0879 4.08909 23.1823 3.41938 24.813C2.74977 26.4439 3.05355 28.2823 4.21231 29.6108L13.3638 40.1031L28.3995 32.5115C29.0914 32.1622 29.9356 32.4398 30.285 33.1318C30.6343 33.8237 30.3567 34.6679 29.6647 35.0173L14.629 42.6089L17.6385 56.2022C18.0196 57.9235 19.3185 59.2595 21.0284 59.6888C22.7417 60.1189 24.5162 59.5518 25.6633 58.2172L52.9365 26.4811C54.1783 25.0362 54.4161 23.0821 53.5574 21.3814C52.6987 19.6807 50.9851 18.7118 49.0851 18.8533Z" fill="#41BE90"/>
</g>
<defs>
<clipPath id="clip0_10_702">
<rect width="47.9037" height="47.9037" fill="white" transform="translate(0 21.5909) rotate(-26.7895)"/>
</clipPath>
</defs>
</svg>
