<svg width="54" height="54" viewBox="0 0 54 54" fill="none" xmlns="http://www.w3.org/2000/svg">
<g clip-path="url(#clip0_10_755)">
<path d="M45.7726 8.63716L21.9427 2.81124C18.9104 2.0699 15.8396 3.93042 15.0972 6.95872L7.46861 38.0796C6.65882 41.3832 8.6912 44.7288 11.9991 45.5375L35.3292 51.2412C36.0655 51.4212 36.8084 50.971 36.9887 50.2357C37.1689 49.5005 36.7182 48.7584 35.9819 48.5784L12.6519 42.8747C10.8141 42.4254 9.68501 40.5668 10.1349 38.7315C10.5848 36.8962 12.4459 35.7686 14.2837 36.2179L37.6137 41.9216C38.35 42.1016 39.0929 41.6514 39.2732 40.9161L46.7794 10.2945C46.9596 9.55921 46.5089 8.81717 45.7726 8.63716ZM11.5335 33.0258L17.7635 7.61057C18.1465 6.04804 19.7254 5.09148 21.29 5.47399L21.3733 5.49436C21.6033 5.5506 21.7442 5.78252 21.6879 6.01227L15.035 33.1527C14.9817 33.3703 14.7691 33.5124 14.5483 33.4732C13.6948 33.3213 12.8454 33.3544 12.0443 33.5454C11.7345 33.6193 11.4578 33.3347 11.5335 33.0258Z" fill="#3491E7"/>
<path d="M37.1242 43.9183L13.7942 38.2146C13.0579 38.0346 12.3149 38.4848 12.1347 39.22C11.9545 39.9553 12.4052 40.6973 13.1415 40.8773L36.4715 46.581C37.2078 46.7611 37.9508 46.3108 38.131 45.5756C38.3112 44.8403 37.8605 44.0983 37.1242 43.9183Z" fill="#3491E7"/>
</g>
<defs>
<clipPath id="clip0_10_755">
<rect width="43.917" height="43.8653" fill="white" transform="matrix(0.971391 0.237485 -0.23808 0.971246 10.4435 0)"/>
</clipPath>
</defs>
</svg>
