<svg width="84" height="38" viewBox="0 0 84 38" fill="none" xmlns="http://www.w3.org/2000/svg">
<path d="M1.10742 13.1028C4.01723 9.91952 11.8593 3.9487 19.9492 5.53174C30.0615 7.51054 35.6795 13.1028 48.644 13.1028C61.6085 13.1028 71.9801 -1.09288 83.3024 1.91829" stroke="#B2C4F0" stroke-width="3"/>
<path d="M1.10742 24.7063C4.01723 21.523 11.8593 15.5522 19.9492 17.1353C30.0615 19.1141 35.6795 24.7063 48.644 24.7063C61.6085 24.7063 71.9801 10.5106 83.3024 13.5218" stroke="#B2C4F0" stroke-width="3"/>
<path d="M1.10742 36.3098C4.01723 33.1265 11.8593 27.1557 19.9492 28.7388C30.0615 30.7176 35.6795 36.3098 48.644 36.3098C61.6085 36.3098 71.9801 22.1141 83.3024 25.1253" stroke="#B2C4F0" stroke-width="3"/>
</svg>
