<svg width="38" height="40" viewBox="0 0 38 40" fill="none" xmlns="http://www.w3.org/2000/svg">
<path d="M36.099 16.681C34.9074 15.8595 33.2198 15.5966 31.7991 16.011C31.4184 16.1221 31.0649 16.278 30.7482 16.4745C29.9405 16.9755 28.1472 18.4796 26.7262 19.9682V8.4939C26.7262 7.51861 26.2508 6.56538 25.4219 5.87832C24.5989 5.19633 23.518 4.82851 22.3836 4.8464C21.8686 4.85415 21.3751 4.94029 20.9191 5.09082V3.97007C20.9191 2.90864 20.4016 1.87105 19.4988 1.12289C18.6041 0.38129 17.4334 -0.018424 16.1951 0.00065264C13.7263 0.0367193 11.7107 1.72887 11.6368 3.79749C11.102 3.59301 10.5212 3.47825 9.91996 3.46305C8.66578 3.43205 7.42362 3.8413 6.51303 4.58678C5.62118 5.31676 5.12983 6.28042 5.12983 7.29744L5.12665 8.38421C4.7417 8.2775 4.3313 8.21908 3.90464 8.21908C1.75154 8.21908 0 9.69602 0 11.5113L0.00141396 28.1908L0.00459533 28.2697C0.184521 30.4588 0.727833 32.333 1.62004 33.8407C2.45639 35.2541 3.62326 36.3922 5.08812 37.2232C7.97082 38.859 11.5319 39.0689 14.3121 39.0689C19.7717 39.0689 24.6834 36.78 27.1398 33.0934C27.4385 32.6875 28.2257 31.6436 29.0759 30.5178C29.9037 29.4209 30.674 28.4101 31.353 27.5183C31.7263 27.028 32.066 26.5821 32.3608 26.1934C33.4591 24.745 34.6295 23.3408 35.8399 22.0195C36.2888 21.5295 36.427 21.3965 36.4585 21.3673C37.0251 20.846 37.3821 20.2078 37.491 19.5213C37.6625 18.4444 37.1549 17.4089 36.099 16.681ZM34.7974 19.2173C34.7624 19.4367 34.644 19.6447 34.4549 19.8188C34.3563 19.9097 34.1799 20.0826 33.6892 20.6185C32.4298 21.9933 31.2123 23.4535 30.0709 24.9588C29.7768 25.3466 29.4385 25.7907 29.066 26.2798C28.3855 27.1734 27.6142 28.1866 26.7831 29.2871C25.9132 30.4394 25.108 31.5068 24.8131 31.9083L24.7824 31.9524C22.811 34.9284 18.7992 36.777 14.3124 36.777C11.9182 36.777 8.87822 36.6116 6.60564 35.3221C4.28676 34.0064 3.01561 31.6606 2.71939 28.1505L2.71797 11.5116C2.71797 10.9598 3.25033 10.5109 3.90464 10.5109C4.56283 10.5109 5.09837 10.9598 5.09837 11.5116V17.7535C5.09837 17.772 5.10084 17.7899 5.10155 17.8083C5.10296 17.8286 5.10296 17.8492 5.10544 17.8694C5.10756 17.8876 5.1118 17.9052 5.11498 17.9231C5.11852 17.9431 5.12099 17.9633 5.12559 17.9833C5.13018 18.0012 5.13655 18.0188 5.14185 18.0364C5.1475 18.0551 5.1521 18.0745 5.15917 18.093C5.16553 18.1109 5.17401 18.1282 5.18179 18.1454C5.18921 18.163 5.19593 18.1809 5.20477 18.1982C5.21325 18.2155 5.2235 18.2319 5.23305 18.2486C5.24259 18.2653 5.25143 18.2823 5.26168 18.2987C5.27193 18.3148 5.2843 18.3303 5.29562 18.3461C5.30693 18.3618 5.31753 18.3779 5.32955 18.3931C5.34192 18.4083 5.35571 18.4227 5.36879 18.4373C5.38187 18.4522 5.39389 18.4674 5.40767 18.4814C5.42146 18.4954 5.43666 18.5082 5.4508 18.5216C5.46564 18.5353 5.47978 18.5499 5.49534 18.563C5.51054 18.5756 5.52644 18.5869 5.54235 18.5991C5.55861 18.6116 5.57452 18.625 5.59184 18.637C5.6081 18.6483 5.62542 18.6584 5.64239 18.6692C5.66042 18.6805 5.67774 18.6924 5.69612 18.7031C5.71344 18.713 5.73182 18.7213 5.74949 18.7303C5.76894 18.7404 5.78802 18.7511 5.80817 18.7607C5.82656 18.769 5.846 18.7759 5.86473 18.7836C5.88523 18.7923 5.90574 18.8012 5.92695 18.809C5.94639 18.8161 5.96724 18.8215 5.98704 18.8277C6.0086 18.8343 6.02981 18.8417 6.05173 18.8477C6.07258 18.8531 6.0945 18.8569 6.11571 18.8617C6.13798 18.8665 6.15954 18.8721 6.18181 18.876C6.20443 18.8799 6.22706 18.882 6.24968 18.885C6.2723 18.8876 6.29422 18.8915 6.31684 18.8936C6.33947 18.8954 6.3628 18.8957 6.38577 18.8966C6.4084 18.8975 6.43102 18.8996 6.454 18.8996C6.45506 18.8996 6.45647 18.8996 6.45753 18.8996C6.50455 18.8996 6.55085 18.8975 6.59645 18.8936C6.61625 18.8921 6.63569 18.8885 6.65549 18.8862C6.68058 18.8832 6.70639 18.8808 6.73113 18.8763C6.75729 18.8718 6.78239 18.8656 6.80784 18.8599C6.82551 18.8558 6.8439 18.8528 6.86122 18.8483C6.8895 18.8408 6.91707 18.8316 6.94464 18.8227C6.95807 18.8182 6.97257 18.8146 6.986 18.8099C7.01357 18.8 7.03973 18.7884 7.06624 18.7774C7.07897 18.772 7.09204 18.7675 7.10477 18.7619C7.12951 18.7505 7.15284 18.7374 7.17653 18.7249C7.18996 18.718 7.20375 18.7118 7.21647 18.7043C7.23839 18.6921 7.25924 18.6781 7.2801 18.6644C7.29389 18.6557 7.30803 18.6477 7.32111 18.6385C7.34055 18.6253 7.35822 18.6104 7.3766 18.5961C7.39039 18.5857 7.40453 18.5756 7.41796 18.5648C7.43493 18.5505 7.45013 18.535 7.46604 18.5201C7.47912 18.5079 7.49325 18.496 7.50563 18.4835C7.51977 18.4689 7.53249 18.4534 7.54592 18.4382C7.55865 18.4238 7.57208 18.4101 7.58375 18.3952C7.59612 18.38 7.60637 18.3642 7.61768 18.3484C7.62899 18.3326 7.64137 18.3171 7.65197 18.301C7.66222 18.2849 7.67071 18.2683 7.68025 18.2519C7.68979 18.2349 7.7004 18.2182 7.70924 18.2009C7.71772 18.1842 7.72408 18.1666 7.73151 18.1496C7.73964 18.1317 7.74812 18.1142 7.75519 18.0957C7.76155 18.0781 7.76615 18.0602 7.77145 18.0423C7.77711 18.0235 7.78382 18.0051 7.78877 17.986C7.79301 17.9681 7.79549 17.9493 7.79867 17.9308C7.80256 17.9115 7.8068 17.8921 7.80927 17.8724C7.81175 17.8539 7.81175 17.8349 7.81281 17.8161C7.81422 17.7961 7.8167 17.7767 7.8167 17.7568L7.84816 7.30042C7.84816 6.90577 8.04646 6.52603 8.40632 6.23124C8.79303 5.91498 9.3162 5.74031 9.83971 5.75403C10.8203 5.77877 11.6181 6.49801 11.6181 7.35914L11.6337 17.693C11.6337 17.7138 11.6361 17.7341 11.6376 17.7544C11.6386 17.7726 11.6386 17.7913 11.6407 17.8092C11.6432 17.8307 11.6482 17.8513 11.6521 17.8721C11.6552 17.8891 11.6574 17.9064 11.6612 17.9231C11.6669 17.9457 11.6747 17.9678 11.6817 17.9899C11.6863 18.0042 11.6899 18.0188 11.6948 18.0328C11.7037 18.0566 11.715 18.0799 11.7256 18.1031C11.7309 18.1147 11.7348 18.1267 11.7404 18.138C11.7531 18.1627 11.7676 18.1869 11.7821 18.2107C11.7878 18.2197 11.792 18.2292 11.7977 18.2379C11.8136 18.2626 11.8316 18.2861 11.8493 18.3094C11.855 18.3171 11.8599 18.3249 11.8659 18.3323C11.8846 18.3559 11.9051 18.3779 11.9256 18.4C11.932 18.4069 11.9377 18.414 11.944 18.4206C11.967 18.4441 11.9918 18.4662 12.0169 18.4879C12.0222 18.4927 12.0264 18.4975 12.0317 18.5019C12.0575 18.5237 12.0851 18.544 12.113 18.5639C12.1183 18.5678 12.1229 18.572 12.1282 18.5759C12.1561 18.5952 12.1851 18.6128 12.2144 18.6301C12.2208 18.634 12.2265 18.6382 12.2328 18.6417C12.2625 18.6587 12.2936 18.6739 12.3247 18.6888C12.3315 18.6921 12.3378 18.696 12.3449 18.6993C12.3774 18.7139 12.411 18.727 12.4449 18.7398C12.4513 18.7422 12.4573 18.7452 12.4637 18.7476C12.4983 18.7598 12.534 18.7702 12.5701 18.7803C12.5764 18.7818 12.5821 18.7842 12.5884 18.786C12.6241 18.7952 12.6606 18.8027 12.697 18.8096C12.7044 18.8107 12.7115 18.8128 12.7189 18.8143C12.8073 18.8295 12.8988 18.8376 12.9925 18.8376C12.9932 18.8376 12.9939 18.8376 12.9946 18.8376C13.0183 18.8376 13.0416 18.8355 13.0649 18.8346C13.0876 18.8334 13.1102 18.8334 13.1325 18.8316C13.1572 18.8292 13.1809 18.8253 13.2053 18.8221C13.2258 18.8194 13.247 18.8176 13.2675 18.814C13.2919 18.8099 13.3156 18.8039 13.3396 18.7985C13.359 18.7941 13.3785 18.7908 13.3976 18.7857C13.422 18.7794 13.4453 18.7714 13.469 18.7636C13.4867 18.758 13.505 18.7535 13.5224 18.7473C13.5467 18.7383 13.5704 18.7279 13.5941 18.718C13.6097 18.7115 13.6259 18.7058 13.6411 18.699C13.6645 18.6882 13.6867 18.6757 13.7094 18.6641C13.7238 18.6563 13.739 18.6495 13.7532 18.6414C13.7747 18.6292 13.7949 18.6155 13.8154 18.6021C13.8295 18.5932 13.844 18.5848 13.8578 18.5753C13.8773 18.5619 13.8956 18.5467 13.9144 18.532C13.9275 18.5219 13.9412 18.5121 13.9543 18.5013C13.9716 18.4864 13.9879 18.4703 14.0045 18.4548C14.0169 18.4432 14.03 18.4322 14.042 18.42C14.0568 18.4045 14.0703 18.3881 14.0841 18.3723C14.0961 18.3586 14.1088 18.3455 14.1201 18.3317C14.1328 18.3159 14.1434 18.2993 14.1551 18.2829C14.1661 18.2677 14.1781 18.2528 14.188 18.2373C14.1986 18.2209 14.2071 18.2036 14.2166 18.1869C14.2262 18.1702 14.2368 18.1541 14.2452 18.1368C14.2534 18.1204 14.2601 18.1031 14.2672 18.0861C14.2753 18.068 14.2841 18.0501 14.2908 18.0316C14.2972 18.0137 14.3018 17.9955 14.3075 17.9773C14.3131 17.9589 14.3198 17.9407 14.3241 17.9219C14.3287 17.9031 14.3311 17.8837 14.3347 17.865C14.3379 17.8459 14.3425 17.8271 14.3446 17.808C14.347 17.7887 14.347 17.769 14.3481 17.7493C14.3495 17.7299 14.3516 17.7112 14.3516 17.6915V3.91522C14.3516 3.03532 15.2 2.30743 16.2425 2.29223C16.7455 2.28626 17.2234 2.4502 17.5942 2.75751C17.9802 3.07735 18.2015 3.51939 18.2015 3.97007V17.7547C18.2015 17.7755 18.204 17.7958 18.2054 17.8164C18.2064 17.8346 18.2064 17.853 18.2086 17.8712C18.211 17.8915 18.216 17.9112 18.2195 17.9311C18.2231 17.9493 18.2252 17.9675 18.2294 17.9851C18.2344 18.0051 18.2414 18.0244 18.2474 18.0441C18.2527 18.0611 18.2566 18.0781 18.263 18.0948C18.2708 18.1159 18.2807 18.1365 18.2899 18.1571C18.2962 18.1714 18.3015 18.186 18.3086 18.2C18.3196 18.2215 18.3323 18.242 18.3447 18.2629C18.3517 18.2751 18.3581 18.2879 18.3659 18.3001C18.3793 18.3213 18.3948 18.3413 18.41 18.3616C18.4182 18.3723 18.4252 18.3839 18.4341 18.3946C18.4503 18.4149 18.4684 18.4343 18.4864 18.4537C18.4952 18.4632 18.503 18.4733 18.5122 18.4826C18.532 18.5031 18.5539 18.5222 18.5755 18.5416C18.584 18.5487 18.5914 18.5568 18.5999 18.5639C18.6221 18.583 18.6462 18.6003 18.6702 18.6179C18.6791 18.6245 18.6872 18.6316 18.6964 18.6379C18.7232 18.6566 18.7515 18.6736 18.7798 18.6906C18.7869 18.6948 18.7936 18.6996 18.801 18.704C18.8314 18.7213 18.8632 18.7371 18.8954 18.7523C18.9014 18.755 18.9067 18.7586 18.9127 18.7613C18.9481 18.7774 18.9841 18.7917 19.0212 18.8054C19.0248 18.8066 19.0279 18.8084 19.0315 18.8096C19.07 18.8233 19.1096 18.8352 19.1499 18.8459C19.152 18.8468 19.1541 18.8474 19.1566 18.848C19.2411 18.8704 19.3291 18.8856 19.42 18.8936C19.4207 18.8936 19.421 18.8936 19.4217 18.8936C19.4673 18.8975 19.5136 18.8996 19.5607 18.8996C19.561 18.8996 19.5614 18.8996 19.5621 18.8996C19.5861 18.8996 19.6098 18.8975 19.6338 18.8966C19.6561 18.8954 19.6784 18.8954 19.7003 18.8936C19.7254 18.8915 19.7498 18.8873 19.7745 18.8841C19.7947 18.8814 19.8152 18.8796 19.8353 18.876C19.8618 18.8716 19.8873 18.865 19.9131 18.8593C19.9304 18.8555 19.9484 18.8525 19.9654 18.848C19.993 18.8406 20.0195 18.8316 20.0463 18.823C20.0608 18.8182 20.0757 18.8143 20.0902 18.8093C20.1174 18.7994 20.1436 18.7881 20.1701 18.7768C20.1828 18.7714 20.1962 18.7669 20.209 18.761C20.2348 18.749 20.2595 18.7356 20.2846 18.7222C20.2966 18.716 20.309 18.7103 20.321 18.7034C20.3465 18.6891 20.3701 18.673 20.3942 18.6572C20.4044 18.6507 20.4154 18.6444 20.4256 18.6376C20.4493 18.6209 20.4716 18.6027 20.4942 18.5848C20.5034 18.5777 20.5133 18.5711 20.5218 18.5636C20.5437 18.5452 20.5642 18.5255 20.5844 18.5055C20.5928 18.4978 20.6017 18.4903 20.6098 18.4823C20.6292 18.4623 20.6469 18.4411 20.6646 18.4203C20.672 18.4113 20.6805 18.403 20.6879 18.394C20.7045 18.3732 20.7194 18.3514 20.7342 18.3297C20.7413 18.3195 20.7494 18.31 20.7562 18.2996C20.7703 18.2775 20.7823 18.2545 20.7947 18.2316C20.8007 18.2209 20.8078 18.2104 20.8131 18.1994C20.8244 18.177 20.8336 18.1538 20.8431 18.1308C20.8481 18.1186 20.8544 18.1067 20.859 18.0939C20.8668 18.0721 20.8728 18.0492 20.8795 18.0268C20.8834 18.0125 20.8887 17.9985 20.8922 17.9842C20.8975 17.9621 20.9007 17.9392 20.9046 17.9168C20.9071 17.9013 20.911 17.8861 20.9127 17.8703C20.9156 17.8495 20.9156 17.828 20.9166 17.8065C20.9177 17.789 20.9198 17.7717 20.9198 17.7535V8.29508C21.0082 7.65572 21.6519 7.1493 22.4313 7.13797C22.8318 7.13231 23.2186 7.26525 23.5173 7.51295C23.8297 7.77167 24.009 8.12936 24.009 8.4939V22.0201L24.0097 22.0713C24.0171 22.8138 24.5954 23.4413 25.4484 23.6326C26.2957 23.8225 27.1614 23.5224 27.6068 22.8791L27.6152 22.8663C28.6807 21.2967 31.5284 18.8364 32.3598 18.3207C32.4559 18.2608 32.5666 18.2128 32.6885 18.177C33.2301 18.0194 33.9091 18.1311 34.3793 18.4554C34.6005 18.6084 34.8533 18.8647 34.7974 19.2173Z" fill="#F48C06"/>
</svg>
