<svg width="18" height="18" viewBox="0 0 18 18" fill="none" xmlns="http://www.w3.org/2000/svg">
<g clip-path="url(#clip0_10_492)">
<path d="M16.4035 0.817506L12.9458 0.0195754C12.5701 -0.0668671 12.1844 0.129291 12.0315 0.48171L10.4356 4.20539C10.296 4.53121 10.3891 4.91355 10.665 5.13631L12.6798 6.78536C11.4829 9.33542 9.39168 11.4566 6.78843 12.6768L5.13938 10.662C4.9133 10.386 4.53428 10.2929 4.20846 10.4326L0.484778 12.0284C0.129034 12.1847 -0.0671245 12.5704 0.019318 12.9461L0.817249 16.4038C0.900367 16.7628 1.21954 17.0222 1.59523 17.0222C10.1098 17.0222 17.0219 10.1234 17.0219 1.59549C17.0219 1.22312 16.7659 0.900624 16.4035 0.817506Z" fill="white"/>
</g>
<defs>
<clipPath id="clip0_10_492">
<rect width="17.0225" height="17.0225" fill="white"/>
</clipPath>
</defs>
</svg>
