<svg width="32" height="32" viewBox="0 0 32 32" fill="none" xmlns="http://www.w3.org/2000/svg">
<g clip-path="url(#clip0_838_847)">
<path d="M21.2733 0.629542C15.3937 -0.264628 9.86968 3.55953 8.68402 9.34188C8.47308 10.3752 8.15564 11.2117 7.71612 11.8988C7.67706 11.9608 7.6419 12.0258 7.61163 12.0927L5.48156 16.8329C5.27935 17.2837 5.31158 17.8042 5.5675 18.2262C5.82434 18.649 6.27166 18.9176 6.76489 18.946L9.19189 19.0837V21.7597C9.19189 23.087 10.2711 24.1662 11.5974 24.1662H12.9697V27.3658C12.9697 28.194 13.6416 28.8659 14.4698 28.8659H24.5177C25.3459 28.8659 26.0179 28.194 26.0179 27.3658C26.0179 24.7542 26.8422 20.7928 28.6822 17.8277C28.6832 17.8267 28.6832 17.8257 28.6842 17.8247C30.368 15.3694 30.9784 12.3764 30.4012 9.38876C30.4012 9.38827 30.4012 9.38827 30.4012 9.38827C29.5241 4.84871 25.8558 1.32882 21.2733 0.629542ZM26.1849 16.1639C26.1605 16.1991 26.1381 16.2357 26.1166 16.2728C24.4826 18.9167 23.3516 22.5391 23.0801 25.8656H15.97V23.5714C15.97 22.2451 14.8907 21.1659 13.5635 21.1659H12.1922V18.5221C12.1922 17.2475 11.1951 16.1927 9.92241 16.12L9.1118 16.0741L10.3053 13.418C10.9147 12.437 11.3464 11.2991 11.6238 9.94398C12.4881 5.72871 16.5354 2.93934 20.82 3.59565C24.0997 4.09571 26.8276 6.71223 27.4556 9.95716C27.8814 12.1649 27.4302 14.3693 26.1849 16.1639ZM4.58789 23.4015C4.58789 26.102 6.7854 28.2995 9.4859 28.2995C10.3141 28.2995 10.986 27.6275 10.986 26.7993C10.986 25.9711 10.3141 25.2992 9.4859 25.2992C8.43988 25.2992 7.58819 24.4475 7.58819 23.4015C7.58819 22.5733 6.91625 21.9013 6.08807 21.9013C5.25982 21.9013 4.58789 22.5733 4.58789 23.4015Z" fill="#F1BF5A"/>
<path d="M2.8869 23.2305C2.05871 23.2305 1.38672 23.9025 1.38672 24.7307C1.38672 28.4635 4.42322 31.5 8.15503 31.5C8.98328 31.5 9.65521 30.8281 9.65521 29.9998C9.65521 29.1716 8.98327 28.4997 8.15503 28.4997C6.0777 28.4997 4.38709 26.8091 4.38709 24.7307C4.38708 23.9025 3.71514 23.2305 2.8869 23.2305Z" fill="#F1BF5A"/>
</g>
<defs>
<clipPath id="clip0_838_847">
<rect width="32" height="32" fill="white"/>
</clipPath>
</defs>
</svg>
