<svg width="42" height="36" viewBox="0 0 42 36" fill="none" xmlns="http://www.w3.org/2000/svg">
<g clip-path="url(#clip0_10_666)">
<path d="M16.701 18.9114C16.3495 20.9221 17.6849 22.8349 19.6828 23.1842C21.6813 23.5336 23.5859 22.1871 23.9374 20.1764C24.2889 18.1657 22.9541 16.253 20.9556 15.9036C18.9577 15.5544 17.0525 16.9007 16.701 18.9114ZM29.3648 21.1252C29.0133 23.1359 30.3487 25.0488 32.3466 25.398C34.3451 25.7474 36.2497 24.401 36.6012 22.3903C36.9527 20.3796 35.6179 18.4668 33.6194 18.1175C31.6214 17.7682 29.7163 19.1145 29.3648 21.1252ZM7.01904 20.9704C9.01754 21.3197 10.9221 19.9733 11.2736 17.9626C11.6251 15.9519 10.2903 14.0392 8.2918 13.6898C6.29386 13.3405 4.3887 14.6869 4.0372 16.6976C3.68569 18.7082 5.0211 20.6211 7.01904 20.9704ZM33.8375 27.5344L30.2193 26.9019C28.2214 26.5526 26.3162 27.899 25.9647 29.9097L25.6465 31.7298C25.4708 32.7349 26.1385 33.6916 27.1374 33.8662L34.3739 35.1313C35.3729 35.3059 36.3255 34.6325 36.5012 33.6274L36.8194 31.8073C37.1709 29.7966 35.8355 27.8837 33.8375 27.5344ZM21.1738 25.3206L17.5555 24.6881C15.5576 24.3388 13.6524 25.6852 13.3009 27.6958L12.9827 29.516C12.807 30.5211 13.4747 31.4778 14.4737 31.6524L21.7101 32.9174C22.7091 33.0921 23.6617 32.4186 23.8374 31.4136L24.1556 29.5934C24.5071 27.5827 23.1717 25.6699 21.1738 25.3206ZM8.50996 23.1068L4.89174 22.4743C2.8938 22.125 0.988632 23.4713 0.637131 25.482L0.318941 27.3022C0.14324 28.3072 0.810894 29.2639 1.80986 29.4386L9.04631 30.7036C10.0453 30.8782 10.9979 30.2048 11.1736 29.1997L11.4918 27.3796C11.8433 25.3689 10.5079 23.456 8.50996 23.1068ZM9.88275 4.58907L35.2103 9.01674L33.9376 16.2973C35.3328 16.5412 36.4979 17.3088 37.3075 18.3501L38.9718 8.82963C39.2437 7.27455 38.2477 5.79619 36.7513 5.53458L9.61458 0.790655C8.1181 0.529047 6.67967 1.58183 6.40781 3.13692L4.74348 12.6574C5.85833 11.9525 7.21528 11.6258 8.60999 11.8696L9.88275 4.58907Z" fill="#545AE8"/>
</g>
<defs>
<clipPath id="clip0_10_666">
<rect width="36.731" height="29.564" fill="white" transform="translate(5.0918) rotate(9.91602)"/>
</clipPath>
</defs>
</svg>
